<svg xmlns="http://www.w3.org/2000/svg" xmlns:xlink="http://www.w3.org/1999/xlink" width="27" height="21" viewBox="0 0 27 21"><defs><path id="6fd9a" d="M496.62 3742h-11.3a5.24 5.24 0 0 1-5.31-5.14c0-2.92 2.29-5.31 5.21-5.45.83-.03 1.63.1 2.37.4a8.69 8.69 0 0 1 8.61-6.81c4.85 0 8.8 3.8 8.8 8.5l-.02.35v.07c0 4.45-3.75 8.08-8.36 8.08zm-11.13-8.9l-.18.01a3.77 3.77 0 0 0-3.54 3.75 3.5 3.5 0 0 0 3.56 3.44h11.29a6.51 6.51 0 0 0 6.6-6.43v-.14l.02-.24c0-3.74-3.16-6.8-7.04-6.8a6.9 6.9 0 0 0-7.02 6.54c-.01.31-.2.6-.5.73a.9.9 0 0 1-.92-.1 3.76 3.76 0 0 0-2.27-.75z"/></defs><g><g transform="translate(-479 -3723)"><use fill="#fff" xlink:href="#6fd9a"/></g></g></svg>