<svg xmlns="http://www.w3.org/2000/svg" xmlns:xlink="http://www.w3.org/1999/xlink" width="25" height="25" viewBox="0 0 25 25"><defs><path id="cm4pa" d="M1061.8 3805.66l-3.96 4.19 1.66 6.2a.76.76 0 0 1-1.01.9l-6.96-2.78-6.95 2.78a.75.75 0 0 1-.78-.14.76.76 0 0 1-.23-.77l1.66-6.2-4.02-4.4a.76.76 0 0 1 .34-1.24l6.1-1.83 3.22-5.97a.76.76 0 0 1 1.33 0l3.23 5.98 6.06 2.04a.76.76 0 0 1 .3 1.24zm-1.92-.18l-5.22-1.75a.76.76 0 0 1-.42-.36l-2.7-5.02-2.71 5.02c-.1.17-.26.3-.45.36l-5.24 1.58 3.48 3.8c.18.2.25.47.18.72l-1.38 5.14 5.83-2.33a.75.75 0 0 1 .56 0l5.83 2.34-1.37-5.15a.76.76 0 0 1 .18-.72z"/></defs><g><g transform="translate(-1039 -3794)"><use fill="#fff" xlink:href="#cm4pa"/></g></g></svg>