<svg xmlns="http://www.w3.org/2000/svg" xmlns:xlink="http://www.w3.org/1999/xlink" width="21" height="20" viewBox="0 0 21 20"><defs><path id="nthka" d="M1058.22 3736.65l-.04.08a9 9 0 0 1-11.82 4.49l-.08-.04a9 9 0 0 1-4.52-11.8l.04-.08a9.01 9.01 0 0 1 11.83-4.53l.08.04a9 9 0 0 1 4.5 11.84zm-4.67-10.51l-2.71 2.7 6.54 6.47a7.7 7.7 0 0 0-3.83-9.17zm-.28 6.9l-3.33-3.3-3.27 3.26 3.32 3.31zm-10.14-3.58l2.64 2.64 6.51-6.49a7.71 7.71 0 0 0-9.15 3.85zm3.31 10.4l2.65-2.65-3.77-3.76-2.72-2.72a7.7 7.7 0 0 0 3.84 9.12zm10.4-3.29l-2.67-2.65-6.46 6.46a7.7 7.7 0 0 0 9.14-3.81z"/></defs><g><g transform="translate(-1039 -3723)"><use fill="#fff" xlink:href="#nthka"/></g></g></svg>