<svg xmlns="http://www.w3.org/2000/svg" xmlns:xlink="http://www.w3.org/1999/xlink" width="36" height="19" viewBox="0 0 36 19"><defs><path id="m93ea" d="M511.67 3803.71a1.11 1.11 0 0 1 0 1.58c-.32.32-7.86 7.7-15.67 7.7-7.82 0-15.36-7.38-15.68-7.7a1.11 1.11 0 0 1 0-1.58c.32-.31 7.86-7.7 15.68-7.7 7.81 0 15.35 7.39 15.67 7.7zm-2.46.8c-2.11-1.85-7.74-6.27-13.21-6.27-5.47 0-11.1 4.42-13.22 6.26 2.11 1.84 7.75 6.26 13.22 6.26 5.47 0 11.1-4.42 13.21-6.26zm-13.21-4.03c2.23 0 4.05 1.8 4.05 4.02a4.04 4.04 0 0 1-4.05 4.02 4.04 4.04 0 0 1-4.06-4.02 4.05 4.05 0 0 1 4.06-4.02zm0 2.23a1.8 1.8 0 0 0 0 3.58c.99 0 1.8-.8 1.8-1.79 0-.98-.81-1.79-1.8-1.79z"/></defs><g><g transform="translate(-478 -3795)"><use fill="#fff" xlink:href="#m93ea"/></g></g></svg>